<svg width="41" height="50" viewBox="0 0 41 50" fill="none" xmlns="http://www.w3.org/2000/svg">
<path d="M27.2935 30.9017C33.9356 30.1085 41 27.6664 41 16.0653C41 12.768 39.8517 10.0808 37.9815 8.0045C38.2833 7.21147 39.2484 4.21921 37.6175 0.067824C37.6175 0.067824 35.2024 -0.726288 29.5276 3.12C27.1124 2.44908 24.456 2.02092 21.9805 2.02092C19.4437 2.02092 16.7863 2.44908 14.4315 3.12C8.69523 -0.726288 6.2802 0.067824 6.2802 0.067824C4.65034 4.21921 5.61673 7.21147 5.91831 8.0045C4.04612 10.0807 2.89892 12.768 2.89892 16.0653C2.89892 27.6664 9.96332 30.1085 16.6054 30.9017C15.7607 31.6357 14.9755 33.0388 14.6738 34.993C12.9826 35.7252 8.5746 37.1302 5.91831 32.4898C5.91831 32.4898 4.34783 29.6206 1.38969 29.4376C1.38969 29.4376 -1.56938 29.3766 1.1483 31.2676C1.1483 31.2676 3.14018 32.1848 4.46939 35.6641C4.46939 35.6641 6.2802 41.4656 14.6124 39.6333V42.6631C14.6124 46.7152 17.8973 50 21.9493 50C26.0014 50 29.2862 46.7152 29.2862 42.6631V36.4591C29.2864 33.6488 28.3794 31.8187 27.2935 30.9017Z" fill="#D7CDCC"/>
</svg>
