<svg width="53" height="50" viewBox="0 0 53 50" fill="none" xmlns="http://www.w3.org/2000/svg">
<path d="M12 5.99996C12 9.31364 9.31374 11.9999 6.00002 11.9999C2.6863 11.9999 0 9.31364 0 5.99996C0 2.68627 2.6863 0 6.00002 0C9.31374 0 12 2.68627 12 5.99996Z" fill="#D7CDCC"/>
<path d="M0 16.4998H12V49.9995H0V16.4998Z" fill="#D7CDCC"/>
<path d="M37.5507 15.6732C35.262 15.884 33.1283 16.9203 31.5476 18.5888L30 20.2224V16.4998H18V49.9995H30V34.4988L30.2182 30.1357C30.3717 27.0652 33.0566 24.7437 36.1171 25.0352C38.8857 25.2988 41 27.624 41 30.4051V50H53V29.0743C53 21.1169 46.1622 14.88 38.2383 15.6099L37.5507 15.6732Z" fill="#D7CDCC"/>
</svg>
